<svg width="445" height="109" viewBox="0 0 445 109" fill="none" xmlns="http://www.w3.org/2000/svg">
<g clip-path="url(#clip0_1_2)">
<mask id="path-1-outside-1_1_2" maskUnits="userSpaceOnUse" x="24" y="16" width="406" height="79" fill="black">
<rect fill="white" x="24" y="16" width="406" height="79"/>
<path d="M44.878 92H28.4007L53.5073 19.2727H73.3226L98.3936 92H81.9164L63.699 35.892H63.1309L44.878 92ZM43.8482 63.4134H82.7686V75.4162H43.8482V63.4134ZM116.147 92V19.2727H144.84C150.333 19.2727 155.02 20.2552 158.903 22.2202C162.809 24.1615 165.78 26.9195 167.816 30.4943C169.876 34.0455 170.906 38.224 170.906 43.0298C170.906 47.8594 169.864 52.0142 167.781 55.4943C165.697 58.9508 162.679 61.6023 158.725 63.4489C154.795 65.2955 150.037 66.2188 144.45 66.2188H125.238V53.8608H141.964C144.9 53.8608 147.338 53.4583 149.279 52.6534C151.221 51.8485 152.665 50.6411 153.612 49.0312C154.582 47.4214 155.068 45.4209 155.068 43.0298C155.068 40.6151 154.582 38.5791 153.612 36.9219C152.665 35.2647 151.209 34.0099 149.244 33.1577C147.302 32.2817 144.852 31.8438 141.893 31.8438H131.524V92H116.147ZM155.423 58.9034L173.498 92H156.524L138.839 58.9034H155.423ZM190.772 92V19.2727H219.465C224.958 19.2727 229.645 20.2552 233.528 22.2202C237.434 24.1615 240.405 26.9195 242.441 30.4943C244.501 34.0455 245.531 38.224 245.531 43.0298C245.531 47.8594 244.489 52.0142 242.406 55.4943C240.322 58.9508 237.304 61.6023 233.35 63.4489C229.42 65.2955 224.662 66.2188 219.075 66.2188H199.863V53.8608H216.589C219.525 53.8608 221.963 53.4583 223.904 52.6534C225.846 51.8485 227.29 50.6411 228.237 49.0312C229.207 47.4214 229.693 45.4209 229.693 43.0298C229.693 40.6151 229.207 38.5791 228.237 36.9219C227.29 35.2647 225.834 34.0099 223.869 33.1577C221.927 32.2817 219.477 31.8438 216.518 31.8438H206.149V92H190.772ZM230.048 58.9034L248.123 92H231.149L213.464 58.9034H230.048ZM346.057 92L325.247 19.2727H342.044L354.083 69.8054H354.686L367.968 19.2727H382.35L395.595 69.9119H396.235L408.273 19.2727H425.07L404.26 92H389.274L375.425 44.4503H374.857L361.043 92H346.057Z"/>
</mask>
<path d="M44.878 92H28.4007L53.5073 19.2727H73.3226L98.3936 92H81.9164L63.699 35.892H63.1309L44.878 92ZM43.8482 63.4134H82.7686V75.4162H43.8482V63.4134ZM116.147 92V19.2727H144.84C150.333 19.2727 155.02 20.2552 158.903 22.2202C162.809 24.1615 165.78 26.9195 167.816 30.4943C169.876 34.0455 170.906 38.224 170.906 43.0298C170.906 47.8594 169.864 52.0142 167.781 55.4943C165.697 58.9508 162.679 61.6023 158.725 63.4489C154.795 65.2955 150.037 66.2188 144.45 66.2188H125.238V53.8608H141.964C144.9 53.8608 147.338 53.4583 149.279 52.6534C151.221 51.8485 152.665 50.6411 153.612 49.0312C154.582 47.4214 155.068 45.4209 155.068 43.0298C155.068 40.6151 154.582 38.5791 153.612 36.9219C152.665 35.2647 151.209 34.0099 149.244 33.1577C147.302 32.2817 144.852 31.8438 141.893 31.8438H131.524V92H116.147ZM155.423 58.9034L173.498 92H156.524L138.839 58.9034H155.423ZM190.772 92V19.2727H219.465C224.958 19.2727 229.645 20.2552 233.528 22.2202C237.434 24.1615 240.405 26.9195 242.441 30.4943C244.501 34.0455 245.531 38.224 245.531 43.0298C245.531 47.8594 244.489 52.0142 242.406 55.4943C240.322 58.9508 237.304 61.6023 233.35 63.4489C229.42 65.2955 224.662 66.2188 219.075 66.2188H199.863V53.8608H216.589C219.525 53.8608 221.963 53.4583 223.904 52.6534C225.846 51.8485 227.29 50.6411 228.237 49.0312C229.207 47.4214 229.693 45.4209 229.693 43.0298C229.693 40.6151 229.207 38.5791 228.237 36.9219C227.29 35.2647 225.834 34.0099 223.869 33.1577C221.927 32.2817 219.477 31.8438 216.518 31.8438H206.149V92H190.772ZM230.048 58.9034L248.123 92H231.149L213.464 58.9034H230.048ZM346.057 92L325.247 19.2727H342.044L354.083 69.8054H354.686L367.968 19.2727H382.35L395.595 69.9119H396.235L408.273 19.2727H425.07L404.26 92H389.274L375.425 44.4503H374.857L361.043 92H346.057Z" fill="white"/>
<path d="M44.878 92V95H47.0568L47.7309 92.9281L44.878 92ZM28.4007 92L25.565 91.021L24.1914 95H28.4007V92ZM53.5073 19.2727V16.2727H51.3692L50.6715 18.2938L53.5073 19.2727ZM73.3226 19.2727L76.1588 18.295L75.4617 16.2727H73.3226V19.2727ZM98.3936 92V95H102.601L101.23 91.0223L98.3936 92ZM81.9164 92L79.063 92.9264L79.7363 95H81.9164V92ZM63.699 35.892L66.5524 34.9656L65.8792 32.892H63.699V35.892ZM63.1309 35.892V32.892H60.9521L60.278 34.964L63.1309 35.892ZM43.8482 63.4134V60.4134H40.8482V63.4134H43.8482ZM82.7686 63.4134H85.7686V60.4134H82.7686V63.4134ZM82.7686 75.4162V78.4162H85.7686V75.4162H82.7686ZM43.8482 75.4162H40.8482V78.4162H43.8482V75.4162ZM44.878 89H28.4007V95H44.878V89ZM31.2365 92.979L56.3431 20.2517L50.6715 18.2938L25.565 91.021L31.2365 92.979ZM53.5073 22.2727H73.3226V16.2727H53.5073V22.2727ZM70.4864 20.2504L95.5574 92.9777L101.23 91.0223L76.1588 18.295L70.4864 20.2504ZM98.3936 89H81.9164V95H98.3936V89ZM84.7697 91.0736L66.5524 34.9656L60.8457 36.8185L79.063 92.9264L84.7697 91.0736ZM63.699 32.892H63.1309V38.892H63.699V32.892ZM60.278 34.964L42.0252 91.0719L47.7309 92.9281L65.9837 36.8201L60.278 34.964ZM43.8482 66.4134H82.7686V60.4134H43.8482V66.4134ZM79.7686 63.4134V75.4162H85.7686V63.4134H79.7686ZM82.7686 72.4162H43.8482V78.4162H82.7686V72.4162ZM46.8482 75.4162V63.4134H40.8482V75.4162H46.8482ZM116.147 92H113.147V95H116.147V92ZM116.147 19.2727V16.2727H113.147V19.2727H116.147ZM158.903 22.2202L157.548 24.8969L157.558 24.9018L157.568 24.9067L158.903 22.2202ZM167.816 30.4943L165.209 31.979L165.215 31.9893L165.221 31.9995L167.816 30.4943ZM167.781 55.4943L170.35 57.043L170.355 57.0352L167.781 55.4943ZM158.725 63.4489L157.456 60.7307L157.45 60.7337L158.725 63.4489ZM125.238 66.2188H122.238V69.2188H125.238V66.2188ZM125.238 53.8608V50.8608H122.238V53.8608H125.238ZM149.279 52.6534L150.428 55.4246L150.428 55.4246L149.279 52.6534ZM153.612 49.0312L151.043 47.4822L151.034 47.4962L151.026 47.5102L153.612 49.0312ZM153.612 36.9219L151.007 38.4103L151.015 38.4242L151.023 38.4381L153.612 36.9219ZM149.244 33.1577L148.01 35.8922L148.03 35.9012L148.05 35.9099L149.244 33.1577ZM131.524 31.8438V28.8438H128.524V31.8438H131.524ZM131.524 92V95H134.524V92H131.524ZM155.423 58.9034L158.056 57.4655L157.203 55.9034H155.423V58.9034ZM173.498 92V95H178.555L176.131 90.5621L173.498 92ZM156.524 92L153.878 93.4138L154.725 95H156.524V92ZM138.839 58.9034V55.9034H133.835L136.193 60.3172L138.839 58.9034ZM119.147 92V19.2727H113.147V92H119.147ZM116.147 22.2727H144.84V16.2727H116.147V22.2727ZM144.84 22.2727C149.982 22.2727 154.181 23.1928 157.548 24.8969L160.258 19.5434C155.859 17.3176 150.683 16.2727 144.84 16.2727V22.2727ZM157.568 24.9067C160.974 26.5995 163.487 28.9542 165.209 31.979L170.423 29.0096C168.074 24.8848 164.644 21.7234 160.238 19.5336L157.568 24.9067ZM165.221 31.9995C166.973 35.0205 167.906 38.6615 167.906 43.0298H173.906C173.906 37.7864 172.778 33.0704 170.411 28.9892L165.221 31.9995ZM167.906 43.0298C167.906 47.4208 166.962 51.0209 165.207 53.9534L170.355 57.0352C172.766 53.0075 173.906 48.2979 173.906 43.0298H167.906ZM165.211 53.9457C163.461 56.8501 160.916 59.1148 157.456 60.7307L159.995 66.167C164.442 64.0897 167.934 61.0514 170.35 57.043L165.211 53.9457ZM157.45 60.7337C154.016 62.347 149.718 63.2188 144.45 63.2188V69.2188C150.356 69.2188 155.575 68.2439 160.001 66.1641L157.45 60.7337ZM144.45 63.2188H125.238V69.2188H144.45V63.2188ZM128.238 66.2188V53.8608H122.238V66.2188H128.238ZM125.238 56.8608H141.964V50.8608H125.238V56.8608ZM141.964 56.8608C145.148 56.8608 148.009 56.4278 150.428 55.4246L148.13 49.8822C146.667 50.4889 144.651 50.8608 141.964 50.8608V56.8608ZM150.428 55.4246C152.893 54.4029 154.879 52.7934 156.197 50.5523L151.026 47.5102C150.45 48.4888 149.549 49.2941 148.13 49.8822L150.428 55.4246ZM156.181 50.5803C157.5 48.3917 158.068 45.8204 158.068 43.0298H152.068C152.068 45.0214 151.664 46.4511 151.043 47.4822L156.181 50.5803ZM158.068 43.0298C158.068 40.2175 157.501 37.627 156.2 35.4057L151.023 38.4381C151.663 39.5311 152.068 41.0126 152.068 43.0298H158.068ZM156.216 35.4335C154.909 33.1456 152.921 31.4825 150.438 30.4054L148.05 35.9099C149.497 36.5374 150.42 37.3838 151.007 38.4103L156.216 35.4335ZM150.478 30.4232C148.028 29.318 145.123 28.8438 141.893 28.8438V34.8438C144.582 34.8438 146.577 35.2454 148.01 35.8922L150.478 30.4232ZM141.893 28.8438H131.524V34.8438H141.893V28.8438ZM128.524 31.8438V92H134.524V31.8438H128.524ZM131.524 89H116.147V95H131.524V89ZM152.79 60.3414L170.865 93.4379L176.131 90.5621L158.056 57.4655L152.79 60.3414ZM173.498 89H156.524V95H173.498V89ZM159.17 90.5862L141.485 57.4896L136.193 60.3172L153.878 93.4138L159.17 90.5862ZM138.839 61.9034H155.423V55.9034H138.839V61.9034ZM190.772 92H187.772V95H190.772V92ZM190.772 19.2727V16.2727H187.772V19.2727H190.772ZM233.528 22.2202L232.173 24.8969L232.183 24.9018L232.193 24.9067L233.528 22.2202ZM242.441 30.4943L239.834 31.979L239.84 31.9893L239.846 31.9995L242.441 30.4943ZM242.406 55.4943L244.975 57.043L244.98 57.0352L242.406 55.4943ZM233.35 63.4489L232.081 60.7307L232.075 60.7337L233.35 63.4489ZM199.863 66.2188H196.863V69.2188H199.863V66.2188ZM199.863 53.8608V50.8608H196.863V53.8608H199.863ZM223.904 52.6534L225.053 55.4246L225.053 55.4246L223.904 52.6534ZM228.237 49.0312L225.668 47.4822L225.659 47.4962L225.651 47.5102L228.237 49.0312ZM228.237 36.9219L225.632 38.4103L225.64 38.4242L225.648 38.4381L228.237 36.9219ZM223.869 33.1577L222.635 35.8922L222.655 35.9012L222.675 35.9099L223.869 33.1577ZM206.149 31.8438V28.8438H203.149V31.8438H206.149ZM206.149 92V95H209.149V92H206.149ZM230.048 58.9034L232.681 57.4655L231.828 55.9034H230.048V58.9034ZM248.123 92V95H253.18L250.756 90.5621L248.123 92ZM231.149 92L228.503 93.4138L229.35 95H231.149V92ZM213.464 58.9034V55.9034H208.46L210.818 60.3172L213.464 58.9034ZM193.772 92V19.2727H187.772V92H193.772ZM190.772 22.2727H219.465V16.2727H190.772V22.2727ZM219.465 22.2727C224.607 22.2727 228.806 23.1928 232.173 24.8969L234.883 19.5434C230.484 17.3176 225.308 16.2727 219.465 16.2727V22.2727ZM232.193 24.9067C235.599 26.5995 238.112 28.9542 239.834 31.979L245.048 29.0096C242.699 24.8848 239.269 21.7234 234.863 19.5336L232.193 24.9067ZM239.846 31.9995C241.598 35.0205 242.531 38.6615 242.531 43.0298H248.531C248.531 37.7864 247.403 33.0704 245.036 28.9892L239.846 31.9995ZM242.531 43.0298C242.531 47.4208 241.587 51.0209 239.832 53.9534L244.98 57.0352C247.391 53.0075 248.531 48.2979 248.531 43.0298H242.531ZM239.836 53.9457C238.086 56.8501 235.541 59.1148 232.081 60.7307L234.62 66.167C239.067 64.0897 242.559 61.0514 244.975 57.043L239.836 53.9457ZM232.075 60.7337C228.641 62.347 224.343 63.2188 219.075 63.2188V69.2188C224.981 69.2188 230.2 68.2439 234.626 66.1641L232.075 60.7337ZM219.075 63.2188H199.863V69.2188H219.075V63.2188ZM202.863 66.2188V53.8608H196.863V66.2188H202.863ZM199.863 56.8608H216.589V50.8608H199.863V56.8608ZM216.589 56.8608C219.773 56.8608 222.634 56.4278 225.053 55.4246L222.755 49.8822C221.292 50.4889 219.276 50.8608 216.589 50.8608V56.8608ZM225.053 55.4246C227.518 54.4029 229.504 52.7934 230.822 50.5523L225.651 47.5102C225.075 48.4888 224.174 49.2941 222.755 49.8822L225.053 55.4246ZM230.806 50.5803C232.125 48.3917 232.693 45.8204 232.693 43.0298H226.693C226.693 45.0214 226.289 46.4511 225.668 47.4822L230.806 50.5803ZM232.693 43.0298C232.693 40.2175 232.126 37.627 230.825 35.4057L225.648 38.4381C226.288 39.5311 226.693 41.0126 226.693 43.0298H232.693ZM230.841 35.4335C229.534 33.1456 227.546 31.4825 225.063 30.4054L222.675 35.9099C224.122 36.5374 225.045 37.3838 225.632 38.4103L230.841 35.4335ZM225.103 30.4232C222.653 29.318 219.748 28.8438 216.518 28.8438V34.8438C219.207 34.8438 221.202 35.2454 222.635 35.8922L225.103 30.4232ZM216.518 28.8438H206.149V34.8438H216.518V28.8438ZM203.149 31.8438V92H209.149V31.8438H203.149ZM206.149 89H190.772V95H206.149V89ZM227.415 60.3414L245.49 93.4379L250.756 90.5621L232.681 57.4655L227.415 60.3414ZM248.123 89H231.149V95H248.123V89ZM233.795 90.5862L216.11 57.4896L210.818 60.3172L228.503 93.4138L233.795 90.5862ZM213.464 61.9034H230.048V55.9034H213.464V61.9034ZM346.057 92L343.173 92.8253L343.795 95H346.057V92ZM325.247 19.2727V16.2727H321.269L322.363 20.098L325.247 19.2727ZM342.044 19.2727L344.963 18.5775L344.413 16.2727H342.044V19.2727ZM354.083 69.8054L351.164 70.5006L351.713 72.8054H354.083V69.8054ZM354.686 69.8054V72.8054H357L357.588 70.568L354.686 69.8054ZM367.968 19.2727V16.2727H365.654L365.066 18.5101L367.968 19.2727ZM382.35 19.2727L385.252 18.5136L384.666 16.2727H382.35V19.2727ZM395.595 69.9119L392.693 70.6711L393.279 72.9119H395.595V69.9119ZM396.235 69.9119V72.9119H398.605L399.153 70.6058L396.235 69.9119ZM408.273 19.2727V16.2727H405.902L405.354 18.5789L408.273 19.2727ZM425.07 19.2727L427.954 20.098L429.049 16.2727H425.07V19.2727ZM404.26 92V95H406.522L407.144 92.8253L404.26 92ZM389.274 92L386.394 92.8389L387.023 95H389.274V92ZM375.425 44.4503L378.305 43.6114L377.676 41.4503H375.425V44.4503ZM374.857 44.4503V41.4503H372.604L371.976 43.6133L374.857 44.4503ZM361.043 92V95H363.295L363.924 92.8369L361.043 92ZM348.941 91.1747L328.132 18.4474L322.363 20.098L343.173 92.8253L348.941 91.1747ZM325.247 22.2727H342.044V16.2727H325.247V22.2727ZM339.126 19.968L351.164 70.5006L357.001 69.1102L344.963 18.5775L339.126 19.968ZM354.083 72.8054H354.686V66.8054H354.083V72.8054ZM357.588 70.568L370.869 20.0353L365.066 18.5101L351.785 69.0428L357.588 70.568ZM367.968 22.2727H382.35V16.2727H367.968V22.2727ZM379.447 20.0319L392.693 70.6711L398.498 69.1528L385.252 18.5136L379.447 20.0319ZM395.595 72.9119H396.235V66.9119H395.595V72.9119ZM399.153 70.6058L411.192 19.9666L405.354 18.5789L393.316 69.2181L399.153 70.6058ZM408.273 22.2727H425.07V16.2727H408.273V22.2727ZM422.186 18.4474L401.376 91.1747L407.144 92.8253L427.954 20.098L422.186 18.4474ZM404.26 89H389.274V95H404.26V89ZM392.155 91.1611L378.305 43.6114L372.545 45.2892L386.394 92.8389L392.155 91.1611ZM375.425 41.4503H374.857V47.4503H375.425V41.4503ZM371.976 43.6133L358.162 91.1631L363.924 92.8369L377.738 45.2872L371.976 43.6133ZM361.043 89H346.057V95H361.043V89Z" fill="black" mask="url(#path-1-outside-1_1_2)"/>
<path d="M311.096 25.3581C314.459 28.4606 317.599 34.2322 320.405 41.3934C323.189 48.4981 325.566 56.7597 327.501 64.6417C329.434 72.5175 330.916 79.9816 331.915 85.4788C332.415 88.2265 332.793 90.4806 333.046 92.0465C333.08 92.2541 333.111 92.4495 333.141 92.6324C332.956 92.618 332.759 92.6025 332.549 92.5857C330.968 92.4592 328.691 92.2635 325.912 91.9868C320.352 91.4332 312.793 90.5565 304.787 89.2638C296.775 87.9701 288.348 86.2652 281.043 84.062C273.679 81.8413 267.673 79.1765 264.31 76.074C250.404 63.2458 249.587 41.489 262.512 27.4775C275.438 13.4661 297.19 12.5299 311.096 25.3581Z" fill="#FF3030" stroke="black" stroke-width="3"/>
<path d="M302.5 50.5C302.5 58.8281 295.965 65.5 288 65.5C280.035 65.5 273.5 58.8281 273.5 50.5C273.5 42.1719 280.035 35.5 288 35.5C295.965 35.5 302.5 42.1719 302.5 50.5Z" fill="white" stroke="black" stroke-width="3"/>
</g>
<defs>
<clipPath id="clip0_1_2">
<rect width="445" height="109" fill="white"/>
</clipPath>
</defs>
</svg>
